<svg xmlns="http://www.w3.org/2000/svg" viewBox="0 0 1200 420" role="img" aria-labelledby="title desc">
  <title id="title">Framework flow diagram</title><desc id="desc">Flow from failure modes to disclosure duties to evidence to governance response.</desc>
  <defs><linearGradient id="bg" x1="0" x2="1"><stop offset="0" stop-color="#0b1224"/><stop offset="1" stop-color="#111a31"/></linearGradient><linearGradient id="node" x1="0" x2="1" y1="0" y2="1"><stop stop-color="#67e8f9"/><stop offset="1" stop-color="#c084fc"/></linearGradient><marker id="arrow" markerWidth="12" markerHeight="12" refX="10" refY="6" orient="auto"><path d="M0 0L12 6L0 12Z" fill="#67e8f9"/></marker></defs>
  <rect width="1200" height="420" rx="28" fill="url(#bg)"/><g opacity="0.14" stroke="#fff"><path d="M0 105h1200M0 210h1200M0 315h1200M150 0v420M300 0v420M450 0v420M600 0v420M750 0v420M900 0v420M1050 0v420"/></g>
  <g font-family="Inter, Arial, sans-serif"><g transform="translate(60 95)"><rect width="220" height="180" rx="26" fill="rgba(255,255,255,0.08)" stroke="#67e8f9" stroke-width="2"/><circle cx="110" cy="52" r="28" fill="url(#node)"/><text x="110" y="58" text-anchor="middle" fill="#07101d" font-size="24" font-weight="900">F</text><text x="110" y="102" text-anchor="middle" fill="#fff" font-size="22" font-weight="800">Failure modes</text><text x="110" y="132" text-anchor="middle" fill="#aebbd4" font-size="15">What breaks?</text><text x="110" y="156" text-anchor="middle" fill="#aebbd4" font-size="15">Who is harmed?</text></g><path d="M300 185H420" stroke="#67e8f9" stroke-width="5" marker-end="url(#arrow)"/><g transform="translate(440 95)"><rect width="220" height="180" rx="26" fill="rgba(255,255,255,0.08)" stroke="#7aa2ff" stroke-width="2"/><circle cx="110" cy="52" r="28" fill="url(#node)"/><text x="110" y="58" text-anchor="middle" fill="#07101d" font-size="22" font-weight="900">D</text><text x="110" y="102" text-anchor="middle" fill="#fff" font-size="22" font-weight="800">Disclosure duties</text><text x="110" y="132" text-anchor="middle" fill="#aebbd4" font-size="15">What must be</text><text x="110" y="156" text-anchor="middle" fill="#aebbd4" font-size="15">made visible?</text></g><path d="M680 185H800" stroke="#67e8f9" stroke-width="5" marker-end="url(#arrow)"/><g transform="translate(820 95)"><rect width="220" height="180" rx="26" fill="rgba(255,255,255,0.08)" stroke="#c084fc" stroke-width="2"/><circle cx="110" cy="52" r="28" fill="url(#node)"/><text x="110" y="58" text-anchor="middle" fill="#07101d" font-size="22" font-weight="900">E</text><text x="110" y="102" text-anchor="middle" fill="#fff" font-size="22" font-weight="800">Evidence matrix</text><text x="110" y="132" text-anchor="middle" fill="#aebbd4" font-size="15">What was</text><text x="110" y="156" text-anchor="middle" fill="#aebbd4" font-size="15">actually observed?</text></g><path d="M930 295v52H195v-52" fill="none" stroke="#ff8bd1" stroke-width="4" stroke-dasharray="9 10" marker-end="url(#arrow)"/><text x="600" y="372" text-anchor="middle" fill="#ffcef0" font-size="20" font-weight="800">Policy loop: verification · enforcement · redress · platform governance</text></g>
</svg>
