<svg xmlns="http://www.w3.org/2000/svg" viewBox="0 0 720 720" role="img" aria-labelledby="title desc">
  <title id="title">Research guardian illustration</title>
  <desc id="desc">Original anime-inspired vector illustration of a researcher, AI network, and civic dome.</desc>
  <defs>
    <linearGradient id="g1" x1="0" x2="1" y1="0" y2="1"><stop stop-color="#67e8f9"/><stop offset="0.55" stop-color="#7aa2ff"/><stop offset="1" stop-color="#c084fc"/></linearGradient>
    <linearGradient id="g2" x1="0" x2="1" y1="1" y2="0"><stop stop-color="#ff8bd1"/><stop offset="1" stop-color="#facc15"/></linearGradient>
    <filter id="glow" x="-50%" y="-50%" width="200%" height="200%"><feGaussianBlur stdDeviation="6" result="blur"/><feMerge><feMergeNode in="blur"/><feMergeNode in="SourceGraphic"/></feMerge></filter>
  </defs>
  <rect width="720" height="720" fill="#07101d"/>
  <g opacity="0.24"><path d="M42 120h636M42 216h636M42 312h636M42 408h636M42 504h636M42 600h636" stroke="#ffffff"/><path d="M120 42v636M216 42v636M312 42v636M408 42v636M504 42v636M600 42v636" stroke="#ffffff"/></g>
  <circle cx="358" cy="347" r="250" fill="url(#g1)" opacity="0.14"/><circle cx="554" cy="152" r="78" fill="#c084fc" opacity="0.22"/><circle cx="136" cy="538" r="90" fill="#67e8f9" opacity="0.14"/>
  <g transform="translate(382 420)" filter="url(#glow)"><path d="M-135 52h270" stroke="#67e8f9" stroke-width="6" stroke-linecap="round"/><path d="M-112 28h224" stroke="#67e8f9" stroke-width="6" stroke-linecap="round" opacity="0.88"/><path d="M-92 28v-92M-46 28v-92M0 28v-92M46 28v-92M92 28v-92" stroke="#67e8f9" stroke-width="7" stroke-linecap="round"/><path d="M-120 -70L0 -142 120 -70Z" fill="none" stroke="#67e8f9" stroke-width="7" stroke-linejoin="round"/><circle cx="0" cy="-104" r="16" fill="#facc15"/></g>
  <g fill="none" stroke-width="3" opacity="0.95"><path d="M140 206C250 116 425 110 560 202" stroke="url(#g1)"/><path d="M122 300C250 248 472 244 590 314" stroke="#ff8bd1" opacity="0.8"/><path d="M160 590C270 642 462 620 560 534" stroke="#67e8f9" opacity="0.7"/></g>
  <g filter="url(#glow)"><circle cx="140" cy="206" r="9" fill="#67e8f9"/><circle cx="306" cy="142" r="7" fill="#facc15"/><circle cx="560" cy="202" r="10" fill="#c084fc"/><circle cx="122" cy="300" r="8" fill="#ff8bd1"/><circle cx="590" cy="314" r="8" fill="#67e8f9"/><circle cx="160" cy="590" r="8" fill="#facc15"/><circle cx="560" cy="534" r="8" fill="#67e8f9"/></g>
  <g transform="translate(215 230)"><path d="M-62 222C-38 150-24 104 0 82C24 104 38 150 62 222Z" fill="#101827" stroke="#7aa2ff" stroke-width="4"/><path d="M-43 220C-34 162-22 124 0 94C22 124 34 162 43 220Z" fill="url(#g1)" opacity="0.25"/><circle cx="0" cy="58" r="52" fill="#ffd6b0"/><path d="M-56 48C-44-18 20-44 58 16C42 4 26 4 10 16C-4 28-30 28-56 48Z" fill="#111827"/><path d="M-58 52C-70 10-34-36 20-36C-14-8-22 18-8 52Z" fill="#1f2937"/><ellipse cx="-18" cy="62" rx="8" ry="12" fill="#07101d"/><ellipse cx="22" cy="62" rx="8" ry="12" fill="#07101d"/><circle cx="-15" cy="58" r="3" fill="#fff"/><circle cx="25" cy="58" r="3" fill="#fff"/><path d="M-12 89C-2 96 10 96 20 89" stroke="#b45309" stroke-width="4" fill="none" stroke-linecap="round"/><path d="M-76 138C-122 168-124 218-98 254" stroke="#ffd6b0" stroke-width="18" stroke-linecap="round"/><path d="M76 138C125 154 150 192 142 240" stroke="#ffd6b0" stroke-width="18" stroke-linecap="round"/><path d="M-100 254L-82 270M140 240L158 244" stroke="#67e8f9" stroke-width="6" stroke-linecap="round"/></g>
  <g transform="translate(78 88)"><rect x="0" y="0" width="184" height="126" rx="22" fill="rgba(255,255,255,0.08)" stroke="#67e8f9" stroke-width="2"/><text x="22" y="34" fill="#67e8f9" font-family="Arial, sans-serif" font-weight="700" font-size="16">Integrity label</text><rect x="22" y="52" width="118" height="10" rx="5" fill="#c084fc"/><rect x="22" y="74" width="88" height="10" rx="5" fill="#facc15"/><rect x="22" y="96" width="136" height="10" rx="5" fill="#67e8f9"/></g>
  <g font-family="ui-monospace, SFMono-Regular, Menlo, monospace" font-size="18" font-weight="700"><text x="510" y="102" fill="#67e8f9">D1b</text><text x="580" y="392" fill="#facc15">D3</text><text x="103" y="404" fill="#ff8bd1">F4</text><text x="453" y="612" fill="#c084fc">D5</text></g>
</svg>
